<svg xmlns="http://www.w3.org/2000/svg" width="102" height="24" viewBox="0 0 102 24">
    <g fill="none" fill-rule="evenodd">
        <g>
            <g>
                <g fill-rule="nonzero">
                    <path fill="#F7552F" d="M55.24 3.371c-.687-1.314-2.062-2.8-4.985-2.8-1.891 0-3.209.8-4.011 1.6V1.086c0-.115-.115-.172-.172-.172h-2.579c-.114 0-.172.115-.172.172V22.8c0 .114.115.171.172.171h2.808c.115 0 .172-.114.172-.171v-7.371c.86.742 2.063 1.428 3.84 1.428 2.922 0 4.297-1.486 4.985-2.8.687-1.371.745-2.8.745-3.086v-4.4c-.058-.342-.115-1.828-.803-3.2zm-2.52 7.715c0 .685-.46 2.971-3.153 2.971-2.75 0-3.151-2.343-3.151-2.971V6.4c0-.686.458-2.971 3.151-2.971 2.751 0 3.152 2.342 3.152 2.971v4.686z" transform="translate(-200 -64) translate(200 64)"/>
                    <path fill="#935227" d="M13.065 6.514c0-.285.057-1.714.802-3.085.745-1.315 2.35-2.8 5.559-2.8s4.813 1.485 5.558 2.8c.803 1.371.803 2.8.803 3.085v4.4c0 .286-.058 1.715-.803 3.086-.745 1.314-2.292 2.8-5.558 2.8-3.21 0-4.814-1.486-5.559-2.8-.802-1.371-.802-2.8-.802-3.086v-4.4zm3.21 4.515c0 .685.458 2.971 3.15 2.971 2.751 0 3.21-2.343 3.21-2.971V6.343c0-.686-.459-2.972-3.21-2.972-2.75 0-3.15 2.343-3.15 2.972v4.686zM40.743 1.086c0-.115-.058-.172-.172-.172h-2.808c-.115 0-.172.115-.172.172v9.943c0 .685-.458 2.971-3.152 2.971-2.75 0-3.209-2.343-3.209-2.971V1.086c0-.115-.114-.172-.172-.172h-2.807c-.115 0-.172.115-.172.172v9.828c0 .286 0 1.715.745 3.086.687 1.314 2.063 2.8 4.985 2.8.974 0 1.776-.171 2.407-.514.63-.286 1.203-.686 1.604-1.086v1.086c0 .114.115.171.172.171h2.579c.114 0 .172-.114.172-.171v-15.2z" transform="translate(-200 -64) translate(200 64)"/>
                    <path fill="#FFC400" d="M69.967 6.343c0-1.257-.63-4.172-3.438-5.314-2.75-1.143-6.36.114-7.507.571l-.229.114c-.114.057-.172.172-.114.286l.802 2.286c.057.114.115.171.23.114.056 0 .056-.057.114-.057 1.088-.572 3.896-1.486 5.615-.686 1.72.8 1.548 2.572 1.548 2.8v.457c-.803-.571-1.949-1.143-3.61-1.2-2.923 0-4.298 1.429-4.986 2.629-.688 1.314-.745 2.686-.745 2.914 0 .286.057 1.657.745 2.914.688 1.258 2.063 2.629 4.986 2.629 1.719 0 2.865-.629 3.724-1.257v.743c0 .114.115.171.172.171h2.464c.115 0 .172-.114.172-.171V6.4c.057 0 .057 0 .057-.057zm-2.98 4.971c0 .629-.458 2.8-3.094 2.8-2.636 0-3.094-2.171-3.094-2.8v-.228c0-.629.458-2.8 3.094-2.8 2.636 0 3.095 2.171 3.095 2.8v.228z" transform="translate(-200 -64) translate(200 64)"/>
                    <path fill="#31B4DD" d="M101.656.686c-1.662-.057-2.693.628-3.38 1.371-.918-.8-2.35-1.428-4.528-1.428-3.209 0-4.813 1.428-5.558 2.685-.802 1.315-.802 2.686-.802 2.972v.171c0 .286.057 1.657.802 2.972.344.571.86 1.142 1.604 1.657-1.203.685-2.292 1.943-2.292 4.171v1.2c0 .114.115.229.172.229H96.9c1.089 0 1.662.743 1.834 1.428.172.857-.115 2-1.605 2.8l-.114.057c-.115.058-.115.172-.058.286l1.261 2.229c.057.114.172.114.286.057 0 0 .63-.4.86-.514.23-.115.401-.286.573-.458 1.605-1.485 1.891-3.485 1.547-5.085-.458-2.172-2.292-3.429-4.584-3.429h-6.36c.343-1.943 2.578-1.886 2.864-1.886h.344c3.21 0 4.814-1.428 5.559-2.685.802-1.315.802-2.686.802-2.972V6.23c0-.229 0-1.258-.516-2.343.401-.286 1.089-.572 2.063-.515.115 0 .23-.114.23-.171V.971c0-.171-.115-.285-.23-.285zM96.9 6.4c0 .629-.458 2.8-3.152 2.857-2.75 0-3.151-2.228-3.151-2.857v-.171c0-.629.458-2.8 3.151-2.858 2.75 0 3.152 2.229 3.152 2.858V6.4z" transform="translate(-200 -64) translate(200 64)"/>
                    <path fill="#935227" d="M12.034 13.486L9.57 12.229c-.115-.058-.23 0-.287.114v.057c-.401.8-1.203 1.657-2.865 1.714-2.75 0-3.152-2.343-3.152-2.971V6.457c0-.686.459-2.971 3.152-2.971 1.662 0 2.521.914 2.865 1.714.057.057.115.171.23.171h.114l2.407-1.257c.114-.057.114-.171.057-.285-.057-.115-.115-.172-.115-.286-.745-1.314-2.292-2.8-5.558-2.8-3.209 0-4.814 1.486-5.558 2.8C.057 4.743 0 6.229 0 6.514v4.4C0 11.2.057 12.63.802 14c.745 1.314 2.292 2.8 5.559 2.8h.057c3.209 0 4.813-1.486 5.558-2.8l.172-.286c0-.057-.057-.171-.114-.228z" transform="translate(-200 -64) translate(200 64)"/>
                    <path fill="#88CC2F" d="M84.465 3.371c-.687-1.314-2.12-2.8-4.985-2.8-1.891 0-3.152.8-4.011 1.6V1.086c0-.115-.115-.172-.172-.172h-2.579c-.115 0-.172.115-.172.172v15.257c0 .114.115.171.172.171h2.808c.114 0 .172-.114.172-.171V6.229c.057-.8.63-2.8 3.151-2.858 2.751 0 3.21 2.343 3.21 2.972v10c0 .114.114.171.171.171h2.808c.115 0 .172-.114.172-.171V6.514c0-.285 0-1.771-.745-3.143z" transform="translate(-200 -64) translate(200 64)"/>
                </g>
                <path d="M0 0H102V24H0z" transform="translate(-200 -64) translate(200 64)"/>
            </g>
        </g>
    </g>
</svg>
